# xmcd
#
# Track frame offsets: 
#        150
#        5253
#        18213
#        33213
#        40152
#        53112
#        71718
#        86684
#        94610
#        107740
#        120496
#        132333
#        149204
#        166245
#        177470
#        187607
#        199240
#        217608
#        233969
#        248153
#        258494
#        268869
#        283461
#
# Disc length: 4113 seconds
#
# Revision: 0
# Processed by: cddbd v1.5.2PL0 Copyright (c) Steve Scherf et al.
# Submitted via: ExactAudioCopy v0.99pb5
#
DISCID=48100f17
DTITLE=Elvis Presley  - FTD 56 - I Found My Thrill - 01-27-1974  
DYEAR=1900
DGENRE=
TTITLE0=Also Sprach Zarathustra
TTITLE1=See See Rider
TTITLE2=I Got A Woman-Amen
TTITLE3=Love Me
TTITLE4=Let Me Be There
TTITLE5=You've Lost That Lovin' Feelin'
TTITLE6=Sweet Caroline
TTITLE7=Love Me Tender
TTITLE8=Long Tall Sally-Whole Lotta Shakin' Goin' On-Your Mamma Don't 
TTITLE8=Dance-Flip, Flop And Fly-Jailhouse Rock-Hound Dog
TTITLE9=Fever
TTITLE10=Polk Salad Annie
TTITLE11=Spanish Eyes
TTITLE12=Suspicious Minds
TTITLE13=Introductions
TTITLE14=I Can't Stop Loving You
TTITLE15=Help Me
TTITLE16=American Trilogy
TTITLE17=Let Me Be There
TTITLE18=Can't Help Falling In Love-Closing Vamp-Announcement
TTITLE19=My Baby Left Me
TTITLE20=Trying To Get To You
TTITLE21=The First Time Ever I Saw Your Face
TTITLE22=I Found My Thrill and medley- Blueberry Hill-I Can't Stop Lovin
TTITLE22=g You
EXTD=
EXTT0=
EXTT1=
EXTT2=
EXTT3=
EXTT4=
EXTT5=
EXTT6=
EXTT7=
EXTT8=
EXTT9=
EXTT10=
EXTT11=
EXTT12=
EXTT13=
EXTT14=
EXTT15=
EXTT16=
EXTT17=
EXTT18=
EXTT19=
EXTT20=
EXTT21=
EXTT22=
PLAYORDER=
